<?xml version="1.0" standalone="no"?>
<!DOCTYPE svg PUBLIC "-//W3C//DTD SVG 20010904//EN"
 "http://www.w3.org/TR/2001/REC-SVG-20010904/DTD/svg10.dtd">
<svg version="1.0" xmlns="http://www.w3.org/2000/svg"
 width="1059.000000pt" height="678.000000pt" viewBox="0 0 1059.000000 678.000000"
 preserveAspectRatio="xMidYMid meet">

<g transform="translate(0.000000,678.000000) scale(0.100000,-0.100000)"
fill="#000000" stroke="none">
<path d="M0 3390 l0 -3390 5295 0 5295 0 0 3390 0 3390 -5295 0 -5295 0 0
-3390z m5680 2859 c533 -49 1089 -278 1528 -629 369 -295 663 -680 848 -1113
19 -43 34 -81 34 -83 0 -2 -740 -4 -1645 -4 l-1645 0 0 894 0 894 63 11 c149
25 211 32 352 39 172 8 301 6 465 -9z m-1010 -954 l0 -875 -65 0 -65 0 0 859
0 860 48 14 c26 8 55 15 65 16 16 1 17 -47 17 -874z m-260 -35 l0 -840 -65 0
-65 0 2 817 3 816 60 23 c33 13 61 23 63 23 1 1 2 -377 2 -839z m-260 -55 l0
-785 -65 0 -65 0 0 755 0 755 58 29 c31 17 60 30 65 31 4 0 7 -353 7 -785z
m-270 -70 l0 -715 -60 0 -60 0 0 678 0 677 58 37 c31 20 58 37 60 37 1 1 2
-321 2 -714z m-260 -90 l0 -625 -60 0 -60 0 0 579 0 579 58 46 c31 25 58 46
60 46 1 0 2 -281 2 -625z m-260 -110 l0 -515 -65 0 -65 0 0 452 0 452 62 63
c34 35 64 63 65 63 2 0 3 -232 3 -515z m-260 -145 l0 -370 -65 0 -65 0 0 286
0 286 61 84 c34 46 63 84 65 84 2 0 4 -166 4 -370z m-260 -190 l0 -180 -65 0
-65 0 0 55 c0 47 9 72 62 180 35 69 64 125 65 125 2 0 3 -81 3 -180z m165
-370 c44 -11 114 -37 155 -58 l75 -38 3 -116 3 -117 -58 35 c-115 69 -227 97
-388 96 -117 0 -176 -12 -261 -53 -95 -45 -157 -107 -204 -202 -123 -253 -32
-561 200 -676 90 -45 144 -56 275 -55 175 1 295 35 410 114 l46 31 -3 -117 -3
-118 -55 -33 c-128 -77 -342 -116 -529 -95 -183 20 -330 84 -436 188 -137 135
-205 306 -205 519 0 221 65 390 203 525 101 99 241 165 402 190 88 13 277 3
370 -20z m1245 16 c239 -44 411 -168 511 -370 64 -129 84 -228 76 -376 -9
-177 -58 -309 -159 -428 -130 -154 -305 -235 -534 -249 -158 -9 -334 34 -451
112 -192 127 -300 324 -310 565 -9 182 27 319 119 456 152 227 452 343 748
290z m4224 -16 c85 -22 169 -57 217 -90 l29 -21 0 -115 0 -115 -32 24 c-105
79 -242 118 -413 119 -103 0 -132 -4 -202 -26 -196 -63 -309 -213 -320 -426
-6 -117 7 -195 49 -280 58 -120 167 -203 314 -240 184 -47 438 -1 582 107 l32
24 0 -115 0 -115 -29 -21 c-110 -77 -264 -115 -466 -114 -161 2 -252 21 -369
79 -168 83 -292 240 -343 435 -24 91 -24 311 0 400 32 121 92 227 176 311 42
41 101 89 131 107 66 37 191 78 275 92 91 14 278 4 369 -20z m-2766 -20 c213
-43 378 -162 462 -332 58 -118 73 -202 67 -373 -4 -116 -9 -154 -31 -221 -66
-203 -222 -343 -451 -406 -72 -19 -111 -22 -392 -26 l-313 -4 0 691 0 691 283
0 c239 0 296 -3 375 -20z m1672 -80 l0 -100 -340 0 -340 0 0 -195 0 -195 255
0 255 0 0 -100 0 -100 -255 0 -255 0 0 -195 0 -195 340 0 340 0 0 -100 0 -100
-465 0 -465 0 0 690 0 690 465 0 465 0 0 -100z m-5749 -1596 c28 -25 10 -36
-35 -20 -70 24 -136 -14 -150 -87 -29 -144 60 -246 166 -191 46 24 61 1 17
-25 -66 -40 -160 -19 -200 45 -43 70 -33 210 19 257 55 50 140 60 183 21z
m398 -1 c46 -34 73 -99 69 -168 -7 -113 -60 -175 -150 -175 -92 0 -149 71
-149 185 0 117 65 191 160 182 24 -3 55 -13 70 -24z m1592 10 c28 -17 36 -33
23 -46 -4 -3 -16 0 -28 8 -11 8 -40 15 -64 15 -147 0 -165 -268 -21 -295 19
-3 47 -2 62 4 24 10 27 15 27 61 l0 50 -35 0 c-28 0 -35 4 -35 20 0 18 7 20
55 20 l55 0 0 -80 c0 -79 0 -80 -32 -96 -50 -26 -121 -21 -163 10 -45 34 -65
75 -72 142 -14 138 122 250 228 187z m638 -4 c25 -15 31 -23 23 -31 -9 -9 -18
-8 -36 2 -82 44 -166 -24 -166 -134 0 -120 96 -196 173 -136 21 17 26 18 37 5
19 -23 -43 -55 -107 -55 -92 0 -147 68 -147 180 0 87 27 140 86 169 54 26 94
27 137 0z m401 -1 c50 -35 75 -91 74 -168 -1 -96 -45 -164 -116 -179 -110 -24
-200 80 -184 212 15 128 133 198 226 135z m480 -3 c15 -14 17 -21 9 -31 -9
-11 -15 -11 -32 1 -27 19 -80 19 -117 0 -57 -30 -79 -165 -36 -230 26 -40 78
-61 123 -49 37 9 38 10 41 62 l3 52 -40 0 c-34 0 -41 3 -41 20 0 18 7 20 60
20 l60 0 0 -80 c0 -79 0 -80 -32 -96 -66 -34 -162 -15 -206 41 -24 30 -44 115
-37 151 3 13 7 35 10 48 7 33 53 86 90 102 39 19 119 12 145 -11z m3536 9 c32
-15 42 -33 27 -47 -3 -4 -14 0 -24 9 -11 10 -35 16 -61 16 -143 -2 -158 -276
-16 -299 27 -4 46 0 72 15 42 25 59 11 28 -21 -33 -32 -117 -35 -161 -5 -54
36 -76 82 -76 158 1 87 30 144 88 171 52 23 79 24 123 3z m-7889 -20 c46 -34
66 -87 61 -166 -6 -112 -57 -158 -184 -166 l-74 -5 0 183 0 182 84 -3 c66 -3
91 -9 113 -25z m453 11 c0 -12 -16 -15 -85 -15 l-85 0 0 -60 0 -60 70 0 c56 0
70 -3 70 -15 0 -12 -14 -15 -70 -15 l-70 0 0 -70 0 -70 85 0 c78 0 85 -2 85
-20 0 -19 -7 -20 -105 -20 l-105 0 0 180 0 180 105 0 c87 0 105 -3 105 -15z
m1216 -5 c56 -28 79 -74 78 -161 0 -50 -5 -74 -23 -102 -31 -50 -68 -68 -157
-74 l-74 -6 0 182 0 181 67 0 c47 0 79 -6 109 -20z m304 -160 c0 -173 -1 -180
-20 -180 -19 0 -20 7 -20 180 0 173 1 180 20 180 19 0 20 -7 20 -180z m329 30
c45 -82 84 -150 86 -150 3 0 1 68 -2 150 -6 149 -6 150 15 150 22 0 22 -2 22
-180 0 -171 -1 -180 -19 -180 -14 0 -39 32 -89 118 -38 64 -77 132 -86 150 -9
17 -18 32 -20 32 -1 0 -1 -67 2 -150 5 -148 4 -150 -17 -150 -21 0 -21 3 -21
180 l0 180 23 0 c19 0 36 -25 106 -150z m2398 1 c45 -79 83 -145 85 -146 2 -2
2 64 0 146 -3 145 -2 149 17 149 20 0 21 -5 21 -180 l0 -180 -22 0 c-19 0 -38
27 -108 150 l-85 149 -3 -149 c-2 -142 -4 -150 -22 -150 -19 0 -20 7 -20 181
l0 180 27 -3 c24 -3 39 -22 110 -147z m363 -31 c0 -173 -1 -180 -20 -180 -19
0 -20 7 -20 180 0 173 1 180 20 180 19 0 20 -7 20 -180z m430 165 c0 -12 -13
-15 -55 -15 l-55 0 0 -165 0 -165 -25 0 -25 0 0 165 0 165 -55 0 c-42 0 -55 3
-55 15 0 13 22 15 135 15 113 0 135 -2 135 -15z m200 -165 c0 -173 -1 -180
-20 -180 -19 0 -20 7 -20 180 0 173 1 180 20 180 19 0 20 -7 20 -180z m224 98
c13 -46 34 -116 46 -155 11 -40 23 -73 25 -73 2 0 11 26 20 58 60 210 76 252
95 252 11 0 20 -3 20 -7 0 -3 -25 -84 -56 -180 -54 -170 -56 -174 -81 -171
-25 3 -30 14 -83 181 -57 175 -57 177 -34 177 20 0 26 -10 48 -82z m566 67 c0
-12 -16 -15 -80 -15 l-80 0 0 -60 0 -60 71 0 c62 0 70 -2 67 -17 -3 -15 -16
-19 -71 -21 l-67 -3 0 -64 0 -65 85 0 c78 0 85 -2 85 -20 0 -19 -7 -20 -110
-20 l-110 0 0 180 0 180 105 0 c87 0 105 -3 105 -15z m566 -1 c54 -26 79 -76
79 -159 0 -124 -63 -185 -192 -185 l-63 0 0 180 0 180 71 0 c44 0 84 -6 105
-16z m464 1 c0 -12 -16 -15 -80 -15 l-80 0 0 -60 0 -60 65 0 c50 0 65 -3 65
-15 0 -11 -16 -15 -67 -17 l-68 -3 -3 -67 -3 -68 86 0 c78 0 85 -2 85 -20 0
-19 -7 -20 -99 -20 l-98 0 -6 68 c-4 37 -7 118 -7 180 l0 112 105 0 c87 0 105
-3 105 -15z m630 -145 l0 -160 80 0 c73 0 80 -2 80 -20 0 -19 -7 -20 -95 -20
l-95 0 0 180 c0 153 2 180 15 180 13 0 15 -24 15 -160z m370 -20 c0 -173 -1
-180 -20 -180 -19 0 -20 7 -20 180 0 173 1 180 20 180 19 0 20 -7 20 -180z
m320 45 c41 -74 80 -143 87 -153 10 -14 12 13 13 136 0 128 2 152 15 152 13 0
15 -27 15 -180 0 -236 -4 -237 -125 -25 -49 85 -89 155 -90 155 -1 0 0 -70 3
-155 5 -153 4 -155 -17 -155 -21 0 -21 3 -21 180 l0 180 23 0 c18 0 35 -24 97
-135z m540 120 c0 -12 -16 -15 -85 -15 l-85 0 0 -60 0 -60 70 0 c55 0 70 -3
70 -15 0 -11 -16 -15 -67 -17 l-68 -3 -3 -67 -3 -68 91 0 c83 0 90 -1 90 -20
0 -19 -7 -20 -105 -20 l-105 0 0 180 0 180 100 0 c82 0 100 -3 100 -15z
m-7320 -562 l0 -58 -30 54 c-17 30 -30 56 -30 58 0 1 14 3 30 3 30 0 30 0 30
-57z m260 -188 c0 -135 -2 -245 -4 -245 -2 0 -31 38 -65 84 l-61 84 0 161 0
161 65 0 65 0 0 -245z m260 -147 l0 -392 -65 64 -65 64 0 328 0 328 65 0 65 0
0 -392z m260 -109 c0 -397 -3 -499 -12 -493 -7 4 -34 25 -60 47 l-48 39 0 454
0 454 60 0 60 0 0 -501z m260 -89 l0 -590 -60 37 -60 38 0 552 0 553 60 0 60
0 0 -590z m270 -70 c0 -363 -2 -660 -5 -660 -3 0 -32 14 -65 30 l-60 30 0 630
0 630 65 0 65 0 0 -660z m260 -55 l0 -715 -62 24 -63 23 -3 692 -2 691 65 0
65 0 0 -715z m260 -41 c0 -415 -3 -753 -7 -751 -5 3 -34 12 -65 21 l-58 17 0
734 0 735 65 0 65 0 0 -756z m3270 679 c-65 -122 -197 -316 -307 -453 -440
-549 -1128 -936 -1841 -1035 -308 -43 -655 -35 -959 21 l-33 6 0 769 0 769
1591 0 1591 0 -42 -77z"/>
<path d="M4035 4029 c-246 -31 -410 -230 -408 -494 1 -144 41 -249 129 -345
118 -126 305 -178 481 -131 222 58 355 238 354 479 0 141 -40 252 -123 347
-97 110 -264 166 -433 144z"/>
<path d="M5290 3540 l0 -490 123 0 c67 0 154 5 192 10 95 13 220 75 272 134
180 205 153 581 -53 739 -95 72 -196 96 -406 97 l-128 0 0 -490z"/>
<path d="M1924 2522 c-12 -1 -34 -16 -50 -33 -23 -25 -29 -40 -32 -93 -5 -82
11 -132 52 -157 47 -29 83 -24 121 14 76 76 51 242 -40 265 -16 4 -40 6 -51 4z"/>
<path d="M4515 2496 c-43 -43 -56 -130 -30 -193 21 -50 41 -71 77 -78 86 -19
154 84 129 197 -20 88 -119 130 -176 74z"/>
<path d="M632 2373 l3 -148 48 2 c84 3 127 53 127 149 0 94 -47 144 -135 144
l-46 0 3 -147z"/>
<path d="M2320 2371 l0 -151 28 1 c79 4 125 36 142 100 16 59 4 124 -29 161
-23 26 -37 32 -84 36 l-57 4 0 -151z"/>
<path d="M7700 2375 l0 -145 48 0 c82 0 122 48 122 146 0 95 -46 144 -136 144
l-34 0 0 -145z"/>
</g>
</svg>
